<?xml version="1.0" encoding="UTF-8" standalone="no"?>
<!DOCTYPE svg PUBLIC "-//W3C//DTD SVG 1.1//EN" "http://www.w3.org/Graphics/SVG/1.1/DTD/svg11.dtd">
<svg width="100%" height="100%" viewBox="0 0 505 505" version="1.1" xmlns="http://www.w3.org/2000/svg" xmlns:xlink="http://www.w3.org/1999/xlink" xml:space="preserve" xmlns:serif="http://www.serif.com/" style="fill-rule:evenodd;clip-rule:evenodd;stroke-linecap:round;stroke-linejoin:round;stroke-miterlimit:1.5;">
    <g transform="matrix(1.26046,0,0,1.26046,-577.701,-525.835)">
        <g transform="matrix(20.2491,55.7898,-55.7898,20.2491,463.044,652.928)">
            <path d="M0.237,-0.06C0.226,-0.049 0.216,-0.039 0.207,-0.032C0.198,-0.024 0.188,-0.018 0.179,-0.013C0.169,-0.008 0.159,-0.005 0.147,-0.003C0.136,-0.001 0.124,0 0.109,0C0.079,-0.002 0.056,-0.011 0.041,-0.028C0.025,-0.044 0.014,-0.065 0.007,-0.09C0.001,-0.115 -0.001,-0.143 0,-0.174C0.002,-0.205 0.006,-0.236 0.011,-0.268C0.017,-0.299 0.023,-0.329 0.031,-0.357C0.039,-0.386 0.046,-0.411 0.052,-0.432C0.06,-0.436 0.066,-0.439 0.072,-0.443C0.077,-0.447 0.082,-0.449 0.085,-0.448C0.089,-0.447 0.092,-0.442 0.094,-0.435C0.097,-0.427 0.099,-0.413 0.101,-0.394C0.1,-0.382 0.097,-0.366 0.093,-0.347C0.089,-0.327 0.084,-0.306 0.079,-0.283C0.074,-0.26 0.069,-0.236 0.066,-0.212C0.062,-0.189 0.061,-0.167 0.063,-0.146C0.064,-0.125 0.069,-0.108 0.077,-0.093C0.085,-0.079 0.098,-0.069 0.117,-0.064C0.123,-0.061 0.131,-0.062 0.14,-0.067C0.15,-0.073 0.16,-0.08 0.17,-0.089C0.181,-0.099 0.192,-0.11 0.203,-0.122C0.214,-0.134 0.225,-0.146 0.234,-0.157C0.244,-0.167 0.253,-0.177 0.26,-0.185C0.267,-0.193 0.272,-0.198 0.275,-0.2C0.286,-0.2 0.295,-0.199 0.304,-0.196C0.313,-0.193 0.317,-0.186 0.317,-0.176C0.302,-0.145 0.294,-0.12 0.292,-0.103C0.29,-0.086 0.293,-0.075 0.3,-0.069C0.307,-0.064 0.318,-0.064 0.332,-0.069C0.346,-0.075 0.362,-0.084 0.379,-0.098C0.396,-0.112 0.413,-0.13 0.431,-0.152C0.448,-0.174 0.464,-0.199 0.479,-0.227C0.494,-0.254 0.506,-0.284 0.515,-0.316C0.524,-0.349 0.528,-0.383 0.528,-0.418C0.528,-0.422 0.531,-0.426 0.536,-0.429C0.541,-0.433 0.547,-0.435 0.554,-0.436C0.56,-0.436 0.567,-0.435 0.573,-0.432C0.58,-0.428 0.585,-0.422 0.588,-0.412C0.601,-0.368 0.616,-0.331 0.633,-0.3C0.65,-0.269 0.667,-0.246 0.686,-0.231C0.705,-0.216 0.723,-0.21 0.742,-0.213C0.76,-0.215 0.777,-0.229 0.793,-0.252C0.808,-0.246 0.817,-0.238 0.821,-0.229C0.825,-0.219 0.825,-0.209 0.82,-0.199C0.816,-0.189 0.808,-0.181 0.796,-0.172C0.785,-0.164 0.772,-0.159 0.757,-0.155C0.742,-0.152 0.726,-0.152 0.708,-0.155C0.69,-0.159 0.673,-0.167 0.657,-0.18C0.64,-0.193 0.625,-0.212 0.61,-0.236C0.595,-0.261 0.583,-0.293 0.574,-0.333C0.566,-0.3 0.554,-0.267 0.539,-0.233C0.524,-0.199 0.507,-0.167 0.488,-0.137C0.469,-0.107 0.449,-0.081 0.427,-0.059C0.405,-0.036 0.383,-0.021 0.361,-0.011C0.338,-0.002 0.317,0 0.295,-0.007C0.274,-0.013 0.255,-0.031 0.237,-0.06Z" style="fill-rule:nonzero;"/>
        </g>
        <g transform="matrix(29.0111,51.7773,-51.7773,29.0111,479.981,696.592)">
            <path d="M0.328,-0.2C0.316,-0.179 0.299,-0.156 0.279,-0.132C0.258,-0.108 0.236,-0.085 0.212,-0.064C0.188,-0.043 0.163,-0.025 0.138,-0.01C0.113,0.005 0.09,0.014 0.069,0.017C0.049,0.02 0.031,0.015 0.017,0.003C0.002,-0.009 -0.006,-0.032 -0.009,-0.065C-0.011,-0.098 -0.007,-0.143 0.005,-0.2C0.017,-0.257 0.038,-0.329 0.068,-0.416C0.073,-0.416 0.079,-0.416 0.086,-0.417C0.093,-0.417 0.1,-0.417 0.107,-0.416C0.114,-0.415 0.12,-0.414 0.125,-0.413C0.129,-0.411 0.132,-0.408 0.132,-0.404C0.111,-0.361 0.093,-0.317 0.079,-0.274C0.065,-0.231 0.055,-0.193 0.05,-0.16C0.045,-0.126 0.045,-0.1 0.05,-0.08C0.056,-0.061 0.068,-0.053 0.087,-0.056C0.107,-0.06 0.134,-0.077 0.168,-0.109C0.203,-0.14 0.247,-0.191 0.3,-0.26C0.307,-0.267 0.314,-0.269 0.32,-0.267C0.327,-0.264 0.332,-0.259 0.336,-0.251C0.34,-0.244 0.341,-0.235 0.341,-0.226C0.34,-0.216 0.336,-0.207 0.328,-0.2ZM0.147,-0.542C0.132,-0.542 0.122,-0.547 0.116,-0.556C0.11,-0.565 0.107,-0.575 0.108,-0.585C0.109,-0.596 0.113,-0.605 0.122,-0.613C0.13,-0.621 0.141,-0.624 0.156,-0.621C0.167,-0.621 0.174,-0.618 0.177,-0.613C0.179,-0.608 0.181,-0.601 0.181,-0.591C0.181,-0.58 0.178,-0.57 0.171,-0.559C0.165,-0.548 0.157,-0.542 0.147,-0.542Z" style="fill-rule:nonzero;"/>
        </g>
        <g transform="matrix(34.0762,48.5936,-48.5936,34.0762,488.495,712.222)">
            <path d="M0.12,0.012C0.084,0.002 0.056,-0.02 0.036,-0.054C0.017,-0.088 0.004,-0.13 -0.001,-0.179C-0.006,-0.228 -0.005,-0.281 0.003,-0.338C0.011,-0.396 0.024,-0.453 0.042,-0.509C0.06,-0.566 0.083,-0.619 0.11,-0.668C0.137,-0.718 0.167,-0.759 0.2,-0.792C0.218,-0.803 0.234,-0.808 0.248,-0.807C0.262,-0.806 0.273,-0.801 0.282,-0.793C0.291,-0.785 0.298,-0.773 0.303,-0.759C0.308,-0.745 0.311,-0.73 0.311,-0.715C0.307,-0.659 0.298,-0.604 0.284,-0.551C0.271,-0.497 0.253,-0.447 0.231,-0.398C0.21,-0.35 0.185,-0.305 0.156,-0.263C0.127,-0.22 0.095,-0.182 0.06,-0.148C0.06,-0.113 0.066,-0.089 0.08,-0.075C0.093,-0.062 0.11,-0.055 0.131,-0.057C0.152,-0.058 0.175,-0.065 0.2,-0.079C0.226,-0.092 0.251,-0.108 0.276,-0.128C0.301,-0.147 0.324,-0.168 0.346,-0.19C0.368,-0.213 0.386,-0.233 0.399,-0.252C0.414,-0.242 0.418,-0.227 0.412,-0.209C0.405,-0.192 0.393,-0.173 0.375,-0.152C0.357,-0.132 0.335,-0.112 0.309,-0.091C0.283,-0.071 0.257,-0.053 0.231,-0.037C0.206,-0.021 0.183,-0.008 0.162,0.001C0.141,0.01 0.127,0.014 0.12,0.012ZM0.23,-0.732C0.213,-0.724 0.196,-0.707 0.18,-0.681C0.163,-0.655 0.148,-0.625 0.135,-0.591C0.121,-0.556 0.109,-0.52 0.098,-0.481C0.087,-0.442 0.079,-0.406 0.072,-0.372C0.065,-0.337 0.06,-0.307 0.058,-0.282C0.056,-0.256 0.056,-0.239 0.06,-0.23C0.072,-0.237 0.085,-0.249 0.099,-0.268C0.113,-0.286 0.127,-0.308 0.141,-0.333C0.154,-0.358 0.168,-0.386 0.181,-0.417C0.194,-0.447 0.205,-0.477 0.216,-0.507C0.226,-0.538 0.235,-0.567 0.242,-0.595C0.249,-0.623 0.254,-0.647 0.256,-0.668C0.258,-0.689 0.257,-0.705 0.253,-0.717C0.249,-0.729 0.242,-0.734 0.23,-0.732Z" style="fill-rule:nonzero;"/>
        </g>
        <g transform="matrix(41.6539,42.2787,-42.2787,41.6539,501.125,731.855)">
            <path d="M0.356,-0.08C0.336,-0.064 0.312,-0.051 0.287,-0.039C0.261,-0.027 0.235,-0.018 0.208,-0.012C0.182,-0.007 0.156,-0.005 0.131,-0.007C0.106,-0.01 0.084,-0.017 0.064,-0.028C0.045,-0.04 0.029,-0.057 0.017,-0.08C0.004,-0.102 -0.002,-0.131 -0.003,-0.167C-0.002,-0.198 0.005,-0.226 0.018,-0.253C0.031,-0.28 0.048,-0.303 0.069,-0.324C0.09,-0.345 0.114,-0.363 0.142,-0.377C0.169,-0.392 0.197,-0.402 0.227,-0.408C0.257,-0.414 0.286,-0.415 0.316,-0.411C0.346,-0.406 0.374,-0.396 0.4,-0.381C0.405,-0.382 0.411,-0.395 0.418,-0.418C0.426,-0.442 0.435,-0.472 0.445,-0.507C0.455,-0.542 0.466,-0.58 0.478,-0.62C0.489,-0.66 0.501,-0.697 0.514,-0.731C0.527,-0.766 0.539,-0.795 0.552,-0.817C0.564,-0.84 0.576,-0.852 0.588,-0.852C0.59,-0.852 0.594,-0.851 0.598,-0.85C0.602,-0.848 0.606,-0.846 0.609,-0.844C0.613,-0.841 0.615,-0.838 0.618,-0.835C0.62,-0.832 0.62,-0.828 0.619,-0.824C0.547,-0.628 0.494,-0.472 0.459,-0.359C0.425,-0.245 0.408,-0.173 0.408,-0.141C0.411,-0.113 0.419,-0.093 0.433,-0.082C0.447,-0.07 0.464,-0.065 0.484,-0.066C0.505,-0.067 0.526,-0.073 0.55,-0.084C0.573,-0.096 0.596,-0.111 0.618,-0.128C0.639,-0.146 0.659,-0.167 0.676,-0.189C0.693,-0.211 0.705,-0.234 0.713,-0.258C0.721,-0.258 0.73,-0.257 0.74,-0.256C0.749,-0.255 0.755,-0.249 0.756,-0.236C0.746,-0.203 0.731,-0.173 0.711,-0.145C0.691,-0.117 0.668,-0.092 0.642,-0.072C0.616,-0.052 0.588,-0.036 0.56,-0.025C0.531,-0.014 0.503,-0.008 0.477,-0.007C0.451,-0.007 0.427,-0.013 0.405,-0.024C0.384,-0.035 0.368,-0.054 0.356,-0.08ZM0.057,-0.165C0.057,-0.151 0.059,-0.138 0.063,-0.125C0.068,-0.113 0.075,-0.102 0.083,-0.092C0.091,-0.082 0.102,-0.074 0.113,-0.068C0.125,-0.063 0.138,-0.06 0.152,-0.06C0.176,-0.06 0.202,-0.066 0.228,-0.079C0.254,-0.092 0.278,-0.109 0.3,-0.129C0.321,-0.15 0.339,-0.173 0.353,-0.199C0.367,-0.225 0.374,-0.251 0.374,-0.276C0.374,-0.29 0.371,-0.301 0.366,-0.311C0.36,-0.32 0.353,-0.327 0.344,-0.333C0.335,-0.338 0.324,-0.342 0.311,-0.344C0.298,-0.347 0.285,-0.348 0.271,-0.348C0.245,-0.348 0.219,-0.343 0.193,-0.334C0.167,-0.326 0.144,-0.313 0.124,-0.297C0.104,-0.281 0.088,-0.261 0.075,-0.239C0.063,-0.217 0.057,-0.192 0.057,-0.165Z" style="fill-rule:nonzero;"/>
        </g>
        <g transform="matrix(49.0992,33.3437,-33.3437,49.0992,530.578,761.777)">
            <path d="M0.476,-0.136C0.462,-0.101 0.444,-0.071 0.421,-0.046C0.399,-0.021 0.374,-0.002 0.346,0.013C0.319,0.027 0.289,0.036 0.259,0.039C0.228,0.042 0.198,0.04 0.169,0.031C0.14,0.023 0.112,0.009 0.086,-0.011C0.06,-0.03 0.037,-0.056 0.019,-0.088C0.002,-0.188 -0.004,-0.281 0.001,-0.366C0.006,-0.451 0.017,-0.526 0.035,-0.588C0.053,-0.651 0.076,-0.701 0.104,-0.737C0.132,-0.774 0.16,-0.794 0.189,-0.797C0.218,-0.8 0.246,-0.785 0.272,-0.751C0.299,-0.718 0.321,-0.662 0.338,-0.584C0.339,-0.509 0.332,-0.446 0.316,-0.394C0.301,-0.341 0.28,-0.298 0.255,-0.263C0.23,-0.228 0.202,-0.201 0.172,-0.18C0.141,-0.16 0.112,-0.144 0.084,-0.132C0.088,-0.104 0.1,-0.082 0.12,-0.065C0.139,-0.049 0.163,-0.039 0.189,-0.034C0.216,-0.029 0.244,-0.029 0.273,-0.036C0.303,-0.042 0.329,-0.053 0.352,-0.069C0.375,-0.085 0.393,-0.106 0.406,-0.131C0.418,-0.157 0.422,-0.188 0.415,-0.223C0.418,-0.228 0.424,-0.232 0.432,-0.235C0.439,-0.238 0.446,-0.24 0.45,-0.24C0.469,-0.215 0.485,-0.2 0.499,-0.192C0.512,-0.185 0.525,-0.183 0.537,-0.185C0.549,-0.187 0.563,-0.191 0.577,-0.199C0.591,-0.206 0.608,-0.212 0.629,-0.217C0.638,-0.217 0.647,-0.214 0.655,-0.209C0.664,-0.204 0.668,-0.196 0.668,-0.186C0.648,-0.17 0.629,-0.157 0.611,-0.147C0.592,-0.138 0.575,-0.131 0.558,-0.127C0.542,-0.123 0.527,-0.122 0.513,-0.124C0.5,-0.125 0.489,-0.129 0.48,-0.136L0.476,-0.136ZM0.271,-0.594C0.258,-0.649 0.244,-0.688 0.229,-0.71C0.215,-0.732 0.201,-0.742 0.188,-0.739C0.174,-0.736 0.161,-0.723 0.148,-0.7C0.135,-0.677 0.124,-0.648 0.113,-0.614C0.102,-0.58 0.092,-0.542 0.084,-0.501C0.076,-0.46 0.069,-0.42 0.064,-0.381C0.059,-0.342 0.056,-0.306 0.055,-0.274C0.053,-0.242 0.054,-0.217 0.058,-0.201L0.063,-0.201C0.082,-0.197 0.102,-0.2 0.121,-0.21C0.141,-0.221 0.159,-0.237 0.177,-0.258C0.194,-0.279 0.21,-0.303 0.225,-0.332C0.239,-0.36 0.251,-0.389 0.26,-0.42C0.269,-0.451 0.275,-0.481 0.277,-0.511C0.279,-0.542 0.277,-0.569 0.271,-0.594Z" style="fill-rule:nonzero;"/>
        </g>
        <g transform="matrix(53.2835,26.1419,-26.1419,53.2835,562.289,782.61)">
            <path d="M0.328,-0.2C0.316,-0.179 0.299,-0.156 0.279,-0.132C0.258,-0.108 0.236,-0.085 0.212,-0.064C0.188,-0.043 0.163,-0.025 0.138,-0.01C0.113,0.005 0.09,0.014 0.069,0.017C0.049,0.02 0.031,0.015 0.017,0.003C0.002,-0.009 -0.006,-0.032 -0.009,-0.065C-0.011,-0.098 -0.007,-0.143 0.005,-0.2C0.017,-0.257 0.038,-0.329 0.068,-0.416C0.073,-0.416 0.079,-0.416 0.086,-0.417C0.093,-0.417 0.1,-0.417 0.107,-0.416C0.114,-0.415 0.12,-0.414 0.125,-0.413C0.129,-0.411 0.132,-0.408 0.132,-0.404C0.111,-0.361 0.093,-0.317 0.079,-0.274C0.065,-0.231 0.055,-0.193 0.05,-0.16C0.045,-0.126 0.045,-0.1 0.05,-0.08C0.056,-0.061 0.068,-0.053 0.087,-0.056C0.107,-0.06 0.134,-0.077 0.168,-0.109C0.203,-0.14 0.247,-0.191 0.3,-0.26C0.307,-0.267 0.314,-0.269 0.32,-0.267C0.327,-0.264 0.332,-0.259 0.336,-0.251C0.34,-0.244 0.341,-0.235 0.341,-0.226C0.34,-0.216 0.336,-0.207 0.328,-0.2ZM0.147,-0.542C0.132,-0.542 0.122,-0.547 0.116,-0.556C0.11,-0.565 0.107,-0.575 0.108,-0.585C0.109,-0.596 0.113,-0.605 0.122,-0.613C0.13,-0.621 0.141,-0.624 0.156,-0.621C0.167,-0.621 0.174,-0.618 0.177,-0.613C0.179,-0.608 0.181,-0.601 0.181,-0.591C0.181,-0.58 0.178,-0.57 0.171,-0.559C0.165,-0.548 0.157,-0.542 0.147,-0.542Z" style="fill-rule:nonzero;"/>
        </g>
        <g transform="matrix(55.8829,19.9909,-19.9909,55.8829,576.947,790.358)">
            <path d="M0.248,0.008C0.197,0.014 0.155,0.012 0.122,0.002C0.089,-0.008 0.063,-0.022 0.044,-0.042C0.025,-0.062 0.013,-0.085 0.007,-0.111C0.001,-0.138 0,-0.166 0.003,-0.194C0.006,-0.223 0.014,-0.251 0.025,-0.279C0.036,-0.306 0.05,-0.331 0.066,-0.353C0.083,-0.374 0.1,-0.391 0.12,-0.403C0.139,-0.415 0.158,-0.42 0.177,-0.418C0.216,-0.417 0.245,-0.408 0.263,-0.393C0.28,-0.378 0.29,-0.359 0.291,-0.336C0.292,-0.314 0.285,-0.29 0.272,-0.264C0.259,-0.238 0.243,-0.214 0.222,-0.192C0.202,-0.169 0.179,-0.15 0.154,-0.135C0.129,-0.119 0.104,-0.11 0.08,-0.108C0.099,-0.078 0.121,-0.057 0.146,-0.047C0.172,-0.036 0.198,-0.033 0.226,-0.036C0.254,-0.039 0.281,-0.047 0.309,-0.062C0.336,-0.076 0.361,-0.092 0.384,-0.111C0.407,-0.13 0.426,-0.15 0.441,-0.171C0.457,-0.192 0.467,-0.211 0.471,-0.229C0.476,-0.237 0.482,-0.242 0.489,-0.244C0.496,-0.246 0.502,-0.246 0.508,-0.243C0.514,-0.24 0.518,-0.235 0.521,-0.228C0.525,-0.22 0.525,-0.213 0.523,-0.204C0.511,-0.179 0.496,-0.153 0.478,-0.127C0.459,-0.102 0.439,-0.079 0.416,-0.059C0.392,-0.038 0.367,-0.022 0.338,-0.01C0.31,0.003 0.28,0.008 0.248,0.008ZM0.18,-0.364C0.159,-0.362 0.141,-0.353 0.126,-0.337C0.111,-0.321 0.099,-0.303 0.091,-0.282C0.083,-0.261 0.079,-0.239 0.078,-0.218C0.077,-0.196 0.079,-0.179 0.086,-0.166C0.098,-0.167 0.111,-0.173 0.127,-0.184C0.143,-0.194 0.159,-0.207 0.173,-0.221C0.188,-0.236 0.201,-0.252 0.212,-0.269C0.223,-0.285 0.23,-0.301 0.233,-0.315C0.236,-0.329 0.234,-0.341 0.226,-0.35C0.219,-0.36 0.203,-0.364 0.18,-0.364Z" style="fill-rule:nonzero;"/>
        </g>
        <g transform="matrix(58.8088,8.0036,-8.0036,58.8088,605.257,801.777)">
            <path d="M0.631,-0.005C0.61,-0.017 0.595,-0.029 0.585,-0.042C0.576,-0.055 0.57,-0.069 0.567,-0.083C0.565,-0.098 0.565,-0.113 0.567,-0.128C0.57,-0.144 0.573,-0.159 0.577,-0.174C0.58,-0.19 0.583,-0.205 0.586,-0.22C0.589,-0.236 0.589,-0.25 0.586,-0.265C0.583,-0.28 0.577,-0.294 0.568,-0.307C0.558,-0.32 0.544,-0.332 0.523,-0.344C0.502,-0.344 0.482,-0.338 0.464,-0.328C0.446,-0.317 0.429,-0.303 0.413,-0.286C0.397,-0.268 0.383,-0.249 0.371,-0.228C0.358,-0.206 0.346,-0.185 0.336,-0.163C0.326,-0.142 0.316,-0.121 0.308,-0.101C0.3,-0.081 0.293,-0.065 0.287,-0.052C0.281,-0.037 0.275,-0.026 0.27,-0.02C0.265,-0.013 0.26,-0.01 0.255,-0.009C0.25,-0.009 0.245,-0.011 0.24,-0.016C0.235,-0.021 0.229,-0.028 0.224,-0.036C0.25,-0.125 0.264,-0.194 0.268,-0.245C0.272,-0.296 0.268,-0.332 0.257,-0.354C0.247,-0.375 0.23,-0.384 0.209,-0.381C0.188,-0.378 0.164,-0.367 0.14,-0.348C0.115,-0.33 0.091,-0.305 0.067,-0.275C0.043,-0.245 0.023,-0.214 0.008,-0.182C-0.013,-0.178 -0.025,-0.182 -0.027,-0.194C-0.03,-0.207 -0.027,-0.223 -0.017,-0.244C-0.008,-0.264 0.006,-0.287 0.024,-0.312C0.043,-0.336 0.062,-0.359 0.083,-0.38C0.104,-0.402 0.125,-0.419 0.146,-0.432C0.167,-0.445 0.185,-0.451 0.2,-0.448C0.229,-0.448 0.252,-0.444 0.269,-0.434C0.286,-0.425 0.298,-0.412 0.306,-0.395C0.313,-0.378 0.318,-0.359 0.32,-0.336C0.322,-0.314 0.323,-0.29 0.323,-0.265C0.347,-0.299 0.373,-0.327 0.401,-0.35C0.429,-0.372 0.457,-0.387 0.484,-0.396C0.511,-0.404 0.536,-0.405 0.56,-0.399C0.583,-0.394 0.602,-0.38 0.617,-0.359C0.631,-0.339 0.64,-0.31 0.644,-0.274C0.648,-0.238 0.643,-0.193 0.63,-0.141C0.634,-0.109 0.641,-0.089 0.653,-0.08C0.664,-0.071 0.678,-0.069 0.693,-0.075C0.709,-0.081 0.726,-0.092 0.745,-0.109C0.763,-0.125 0.782,-0.144 0.8,-0.163C0.819,-0.183 0.837,-0.201 0.854,-0.22C0.87,-0.238 0.885,-0.252 0.897,-0.262C0.917,-0.257 0.926,-0.246 0.923,-0.23C0.921,-0.215 0.912,-0.197 0.896,-0.176C0.88,-0.156 0.86,-0.134 0.834,-0.112C0.809,-0.09 0.784,-0.07 0.757,-0.053C0.731,-0.036 0.706,-0.022 0.683,-0.013C0.66,-0.003 0.643,0 0.631,-0.005Z" style="fill-rule:nonzero;"/>
        </g>
        <g transform="matrix(59.2067,-4.13429,4.13429,59.2067,657.133,807.785)">
            <path d="M0.248,0.008C0.197,0.014 0.155,0.012 0.122,0.002C0.089,-0.008 0.063,-0.022 0.044,-0.042C0.025,-0.062 0.013,-0.085 0.007,-0.111C0.001,-0.138 0,-0.166 0.003,-0.194C0.006,-0.223 0.014,-0.251 0.025,-0.279C0.036,-0.306 0.05,-0.331 0.066,-0.353C0.083,-0.374 0.1,-0.391 0.12,-0.403C0.139,-0.415 0.158,-0.42 0.177,-0.418C0.216,-0.417 0.245,-0.408 0.263,-0.393C0.28,-0.378 0.29,-0.359 0.291,-0.336C0.292,-0.314 0.285,-0.29 0.272,-0.264C0.259,-0.238 0.243,-0.214 0.222,-0.192C0.202,-0.169 0.179,-0.15 0.154,-0.135C0.129,-0.119 0.104,-0.11 0.08,-0.108C0.099,-0.078 0.121,-0.057 0.146,-0.047C0.172,-0.036 0.198,-0.033 0.226,-0.036C0.254,-0.039 0.281,-0.047 0.309,-0.062C0.336,-0.076 0.361,-0.092 0.384,-0.111C0.407,-0.13 0.426,-0.15 0.441,-0.171C0.457,-0.192 0.467,-0.211 0.471,-0.229C0.476,-0.237 0.482,-0.242 0.489,-0.244C0.496,-0.246 0.502,-0.246 0.508,-0.243C0.514,-0.24 0.518,-0.235 0.521,-0.228C0.525,-0.22 0.525,-0.213 0.523,-0.204C0.511,-0.179 0.496,-0.153 0.478,-0.127C0.459,-0.102 0.439,-0.079 0.416,-0.059C0.392,-0.038 0.367,-0.022 0.338,-0.01C0.31,0.003 0.28,0.008 0.248,0.008ZM0.18,-0.364C0.159,-0.362 0.141,-0.353 0.126,-0.337C0.111,-0.321 0.099,-0.303 0.091,-0.282C0.083,-0.261 0.079,-0.239 0.078,-0.218C0.077,-0.196 0.079,-0.179 0.086,-0.166C0.098,-0.167 0.111,-0.173 0.127,-0.184C0.143,-0.194 0.159,-0.207 0.173,-0.221C0.188,-0.236 0.201,-0.252 0.212,-0.269C0.223,-0.285 0.23,-0.301 0.233,-0.315C0.236,-0.329 0.234,-0.341 0.226,-0.35C0.219,-0.36 0.203,-0.364 0.18,-0.364Z" style="fill-rule:nonzero;"/>
        </g>
        <g transform="matrix(57.0889,-16.2291,16.2291,57.0889,687.578,806.894)">
            <path d="M0.631,-0.005C0.61,-0.017 0.595,-0.029 0.585,-0.042C0.576,-0.055 0.57,-0.069 0.567,-0.083C0.565,-0.098 0.565,-0.113 0.567,-0.128C0.57,-0.144 0.573,-0.159 0.577,-0.174C0.58,-0.19 0.583,-0.205 0.586,-0.22C0.589,-0.236 0.589,-0.25 0.586,-0.265C0.583,-0.28 0.577,-0.294 0.568,-0.307C0.558,-0.32 0.544,-0.332 0.523,-0.344C0.502,-0.344 0.482,-0.338 0.464,-0.328C0.446,-0.317 0.429,-0.303 0.413,-0.286C0.397,-0.268 0.383,-0.249 0.371,-0.228C0.358,-0.206 0.346,-0.185 0.336,-0.163C0.326,-0.142 0.316,-0.121 0.308,-0.101C0.3,-0.081 0.293,-0.065 0.287,-0.052C0.281,-0.037 0.275,-0.026 0.27,-0.02C0.265,-0.013 0.26,-0.01 0.255,-0.009C0.25,-0.009 0.245,-0.011 0.24,-0.016C0.235,-0.021 0.229,-0.028 0.224,-0.036C0.25,-0.125 0.264,-0.194 0.268,-0.245C0.272,-0.296 0.268,-0.332 0.257,-0.354C0.247,-0.375 0.23,-0.384 0.209,-0.381C0.188,-0.378 0.164,-0.367 0.14,-0.348C0.115,-0.33 0.091,-0.305 0.067,-0.275C0.043,-0.245 0.023,-0.214 0.008,-0.182C-0.013,-0.178 -0.025,-0.182 -0.027,-0.194C-0.03,-0.207 -0.027,-0.223 -0.017,-0.244C-0.008,-0.264 0.006,-0.287 0.024,-0.312C0.043,-0.336 0.062,-0.359 0.083,-0.38C0.104,-0.402 0.125,-0.419 0.146,-0.432C0.167,-0.445 0.185,-0.451 0.2,-0.448C0.229,-0.448 0.252,-0.444 0.269,-0.434C0.286,-0.425 0.298,-0.412 0.306,-0.395C0.313,-0.378 0.318,-0.359 0.32,-0.336C0.322,-0.314 0.323,-0.29 0.323,-0.265C0.347,-0.299 0.373,-0.327 0.401,-0.35C0.429,-0.372 0.457,-0.387 0.484,-0.396C0.511,-0.404 0.536,-0.405 0.56,-0.399C0.583,-0.394 0.602,-0.38 0.617,-0.359C0.631,-0.339 0.64,-0.31 0.644,-0.274C0.648,-0.238 0.643,-0.193 0.63,-0.141C0.634,-0.109 0.641,-0.089 0.653,-0.08C0.664,-0.071 0.678,-0.069 0.693,-0.075C0.709,-0.081 0.726,-0.092 0.745,-0.109C0.763,-0.125 0.782,-0.144 0.8,-0.163C0.819,-0.183 0.837,-0.201 0.854,-0.22C0.87,-0.238 0.885,-0.252 0.897,-0.262C0.917,-0.257 0.926,-0.246 0.923,-0.23C0.921,-0.215 0.912,-0.197 0.896,-0.176C0.88,-0.156 0.86,-0.134 0.834,-0.112C0.809,-0.09 0.784,-0.07 0.757,-0.053C0.731,-0.036 0.706,-0.022 0.683,-0.013C0.66,-0.003 0.643,0 0.631,-0.005Z" style="fill-rule:nonzero;"/>
        </g>
        <g transform="matrix(53.1235,-26.4656,26.4656,53.1235,737.349,791.344)">
            <path d="M0.396,-0.24C0.373,-0.2 0.347,-0.164 0.318,-0.131C0.29,-0.099 0.26,-0.072 0.23,-0.049C0.201,-0.027 0.171,-0.01 0.143,0.001C0.114,0.012 0.088,0.016 0.065,0.013C0.043,0.01 0.024,0 0.01,-0.017C-0.005,-0.034 -0.012,-0.06 -0.013,-0.095C-0.013,-0.129 -0.006,-0.173 0.008,-0.226C0.023,-0.279 0.048,-0.342 0.084,-0.416L-0.012,-0.424C-0.014,-0.424 -0.016,-0.427 -0.019,-0.433C-0.021,-0.438 -0.022,-0.445 -0.022,-0.452C-0.022,-0.458 -0.021,-0.465 -0.017,-0.471C-0.013,-0.477 -0.005,-0.48 0.006,-0.48C0.016,-0.48 0.03,-0.48 0.048,-0.48C0.067,-0.48 0.085,-0.479 0.102,-0.477L0.191,-0.755C0.197,-0.755 0.204,-0.755 0.21,-0.754C0.217,-0.754 0.223,-0.753 0.229,-0.751C0.234,-0.749 0.238,-0.746 0.242,-0.741C0.246,-0.736 0.248,-0.729 0.248,-0.72L0.162,-0.477C0.174,-0.475 0.184,-0.474 0.189,-0.474C0.195,-0.473 0.201,-0.472 0.206,-0.472C0.21,-0.472 0.216,-0.472 0.223,-0.472C0.23,-0.472 0.241,-0.472 0.256,-0.473C0.266,-0.47 0.274,-0.466 0.278,-0.459C0.283,-0.453 0.285,-0.447 0.284,-0.441C0.284,-0.435 0.28,-0.429 0.275,-0.423C0.269,-0.418 0.262,-0.414 0.252,-0.412L0.153,-0.417C0.119,-0.346 0.093,-0.287 0.077,-0.239C0.06,-0.191 0.05,-0.153 0.047,-0.124C0.044,-0.095 0.048,-0.074 0.057,-0.062C0.066,-0.05 0.079,-0.045 0.095,-0.046C0.112,-0.047 0.131,-0.054 0.153,-0.067C0.175,-0.08 0.198,-0.096 0.222,-0.117C0.245,-0.137 0.268,-0.16 0.291,-0.187C0.314,-0.213 0.334,-0.24 0.352,-0.268C0.356,-0.268 0.361,-0.268 0.365,-0.269C0.37,-0.269 0.374,-0.269 0.378,-0.268C0.383,-0.266 0.386,-0.264 0.389,-0.26C0.392,-0.256 0.394,-0.249 0.396,-0.24Z" style="fill-rule:nonzero;"/>
        </g>
        <g transform="matrix(49.4468,-32.826,32.826,49.4468,755.592,782.703)">
            <path d="M0.248,0.008C0.197,0.014 0.155,0.012 0.122,0.002C0.089,-0.008 0.063,-0.022 0.044,-0.042C0.025,-0.062 0.013,-0.085 0.007,-0.111C0.001,-0.138 0,-0.166 0.003,-0.194C0.006,-0.223 0.014,-0.251 0.025,-0.279C0.036,-0.306 0.05,-0.331 0.066,-0.353C0.083,-0.374 0.1,-0.391 0.12,-0.403C0.139,-0.415 0.158,-0.42 0.177,-0.418C0.216,-0.417 0.245,-0.408 0.263,-0.393C0.28,-0.378 0.29,-0.359 0.291,-0.336C0.292,-0.314 0.285,-0.29 0.272,-0.264C0.259,-0.238 0.243,-0.214 0.222,-0.192C0.202,-0.169 0.179,-0.15 0.154,-0.135C0.129,-0.119 0.104,-0.11 0.08,-0.108C0.099,-0.078 0.121,-0.057 0.146,-0.047C0.172,-0.036 0.198,-0.033 0.226,-0.036C0.254,-0.039 0.281,-0.047 0.309,-0.062C0.336,-0.076 0.361,-0.092 0.384,-0.111C0.407,-0.13 0.426,-0.15 0.441,-0.171C0.457,-0.192 0.467,-0.211 0.471,-0.229C0.476,-0.237 0.482,-0.242 0.489,-0.244C0.496,-0.246 0.502,-0.246 0.508,-0.243C0.514,-0.24 0.518,-0.235 0.521,-0.228C0.525,-0.22 0.525,-0.213 0.523,-0.204C0.511,-0.179 0.496,-0.153 0.478,-0.127C0.459,-0.102 0.439,-0.079 0.416,-0.059C0.392,-0.038 0.367,-0.022 0.338,-0.01C0.31,0.003 0.28,0.008 0.248,0.008ZM0.18,-0.364C0.159,-0.362 0.141,-0.353 0.126,-0.337C0.111,-0.321 0.099,-0.303 0.091,-0.282C0.083,-0.261 0.079,-0.239 0.078,-0.218C0.077,-0.196 0.079,-0.179 0.086,-0.166C0.098,-0.167 0.111,-0.173 0.127,-0.184C0.143,-0.194 0.159,-0.207 0.173,-0.221C0.188,-0.236 0.201,-0.252 0.212,-0.269C0.223,-0.285 0.23,-0.301 0.233,-0.315C0.236,-0.329 0.234,-0.341 0.226,-0.35C0.219,-0.36 0.203,-0.364 0.18,-0.364Z" style="fill-rule:nonzero;"/>
        </g>
        <g transform="matrix(43.889,-39.9535,39.9535,43.889,779.055,767.684)">
            <path d="M0.624,-0.2C0.601,-0.168 0.576,-0.137 0.548,-0.109C0.521,-0.081 0.491,-0.056 0.46,-0.035C0.43,-0.014 0.397,0.003 0.363,0.016C0.329,0.028 0.293,0.034 0.256,0.034C0.219,0.034 0.18,0.027 0.141,0.013C0.101,-0.002 0.061,-0.025 0.02,-0.057C0,-0.07 -0.012,-0.085 -0.016,-0.104C-0.02,-0.123 -0.019,-0.142 -0.013,-0.163C-0.006,-0.184 0.004,-0.205 0.019,-0.228C0.034,-0.25 0.051,-0.271 0.07,-0.292C0.089,-0.314 0.109,-0.333 0.13,-0.352C0.151,-0.371 0.171,-0.387 0.189,-0.4C0.208,-0.413 0.225,-0.424 0.239,-0.431C0.254,-0.438 0.263,-0.44 0.269,-0.438C0.296,-0.417 0.32,-0.389 0.341,-0.354C0.362,-0.319 0.376,-0.282 0.384,-0.244C0.392,-0.205 0.391,-0.167 0.383,-0.129C0.374,-0.091 0.355,-0.059 0.324,-0.031C0.352,-0.031 0.378,-0.04 0.404,-0.058C0.43,-0.076 0.454,-0.097 0.478,-0.122C0.501,-0.147 0.523,-0.172 0.543,-0.197C0.564,-0.222 0.583,-0.242 0.601,-0.256C0.61,-0.256 0.618,-0.254 0.624,-0.25C0.63,-0.246 0.634,-0.241 0.636,-0.235C0.638,-0.229 0.638,-0.223 0.636,-0.217C0.634,-0.21 0.63,-0.205 0.624,-0.2ZM0.04,-0.124C0.042,-0.11 0.048,-0.097 0.059,-0.086C0.069,-0.075 0.082,-0.066 0.097,-0.058C0.112,-0.051 0.129,-0.045 0.147,-0.042C0.166,-0.038 0.184,-0.036 0.201,-0.036C0.219,-0.035 0.235,-0.037 0.25,-0.04C0.264,-0.043 0.276,-0.049 0.284,-0.056C0.285,-0.056 0.286,-0.056 0.287,-0.056C0.288,-0.056 0.288,-0.057 0.289,-0.057C0.306,-0.065 0.318,-0.078 0.326,-0.097C0.333,-0.115 0.337,-0.135 0.337,-0.158C0.338,-0.18 0.335,-0.203 0.33,-0.228C0.324,-0.252 0.317,-0.274 0.308,-0.295C0.299,-0.316 0.29,-0.333 0.279,-0.348C0.268,-0.363 0.258,-0.372 0.248,-0.376C0.243,-0.373 0.233,-0.367 0.22,-0.356C0.206,-0.345 0.191,-0.332 0.174,-0.317C0.157,-0.302 0.139,-0.286 0.122,-0.268C0.104,-0.249 0.088,-0.231 0.074,-0.214C0.06,-0.196 0.049,-0.18 0.042,-0.164C0.036,-0.148 0.035,-0.134 0.04,-0.124Z" style="fill-rule:nonzero;"/>
        </g>
        <g transform="matrix(38.1386,-45.475,45.475,38.1386,804.177,744.375)">
            <path d="M0.396,-0.24C0.373,-0.2 0.347,-0.164 0.318,-0.131C0.29,-0.099 0.26,-0.072 0.23,-0.049C0.201,-0.027 0.171,-0.01 0.143,0.001C0.114,0.012 0.088,0.016 0.065,0.013C0.043,0.01 0.024,0 0.01,-0.017C-0.005,-0.034 -0.012,-0.06 -0.013,-0.095C-0.013,-0.129 -0.006,-0.173 0.008,-0.226C0.023,-0.279 0.048,-0.342 0.084,-0.416L-0.012,-0.424C-0.014,-0.424 -0.016,-0.427 -0.019,-0.433C-0.021,-0.438 -0.022,-0.445 -0.022,-0.452C-0.022,-0.458 -0.021,-0.465 -0.017,-0.471C-0.013,-0.477 -0.005,-0.48 0.006,-0.48C0.016,-0.48 0.03,-0.48 0.048,-0.48C0.067,-0.48 0.085,-0.479 0.102,-0.477L0.191,-0.755C0.197,-0.755 0.204,-0.755 0.21,-0.754C0.217,-0.754 0.223,-0.753 0.229,-0.751C0.234,-0.749 0.238,-0.746 0.242,-0.741C0.246,-0.736 0.248,-0.729 0.248,-0.72L0.162,-0.477C0.174,-0.475 0.184,-0.474 0.189,-0.474C0.195,-0.473 0.201,-0.472 0.206,-0.472C0.21,-0.472 0.216,-0.472 0.223,-0.472C0.23,-0.472 0.241,-0.472 0.256,-0.473C0.266,-0.47 0.274,-0.466 0.278,-0.459C0.283,-0.453 0.285,-0.447 0.284,-0.441C0.284,-0.435 0.28,-0.429 0.275,-0.423C0.269,-0.418 0.262,-0.414 0.252,-0.412L0.153,-0.417C0.119,-0.346 0.093,-0.287 0.077,-0.239C0.06,-0.191 0.05,-0.153 0.047,-0.124C0.044,-0.095 0.048,-0.074 0.057,-0.062C0.066,-0.05 0.079,-0.045 0.095,-0.046C0.112,-0.047 0.131,-0.054 0.153,-0.067C0.175,-0.08 0.198,-0.096 0.222,-0.117C0.245,-0.137 0.268,-0.16 0.291,-0.187C0.314,-0.213 0.334,-0.24 0.352,-0.268C0.356,-0.268 0.361,-0.268 0.365,-0.269C0.37,-0.269 0.374,-0.269 0.378,-0.268C0.383,-0.266 0.386,-0.264 0.389,-0.26C0.392,-0.256 0.394,-0.249 0.396,-0.24Z" style="fill-rule:nonzero;"/>
        </g>
        <g transform="matrix(34.0762,-48.5936,48.5936,34.0762,817.426,728.442)">
            <path d="M0.133,-0.008C0.124,-0.005 0.117,-0.006 0.11,-0.011C0.103,-0.016 0.098,-0.023 0.095,-0.031C0.092,-0.039 0.092,-0.048 0.094,-0.057C0.097,-0.067 0.103,-0.074 0.112,-0.08C0.126,-0.091 0.137,-0.094 0.146,-0.088C0.155,-0.083 0.16,-0.075 0.163,-0.063C0.166,-0.052 0.165,-0.041 0.16,-0.029C0.156,-0.017 0.146,-0.01 0.133,-0.008Z" style="fill-rule:nonzero;"/>
        </g>
        <g transform="matrix(26.7679,-52.9718,52.9718,26.7679,826.429,717.605)">
            <path d="M0.356,-0.08C0.336,-0.064 0.312,-0.051 0.287,-0.039C0.261,-0.027 0.235,-0.018 0.208,-0.012C0.182,-0.007 0.156,-0.005 0.131,-0.007C0.106,-0.01 0.084,-0.017 0.064,-0.028C0.045,-0.04 0.029,-0.057 0.017,-0.08C0.004,-0.102 -0.002,-0.131 -0.003,-0.167C-0.002,-0.198 0.005,-0.226 0.018,-0.253C0.031,-0.28 0.048,-0.303 0.069,-0.324C0.09,-0.345 0.114,-0.363 0.142,-0.377C0.169,-0.392 0.197,-0.402 0.227,-0.408C0.257,-0.414 0.286,-0.415 0.316,-0.411C0.346,-0.406 0.374,-0.396 0.4,-0.381C0.405,-0.382 0.411,-0.395 0.418,-0.418C0.426,-0.442 0.435,-0.472 0.445,-0.507C0.455,-0.542 0.466,-0.58 0.478,-0.62C0.489,-0.66 0.501,-0.697 0.514,-0.731C0.527,-0.766 0.539,-0.795 0.552,-0.817C0.564,-0.84 0.576,-0.852 0.588,-0.852C0.59,-0.852 0.594,-0.851 0.598,-0.85C0.602,-0.848 0.606,-0.846 0.609,-0.844C0.613,-0.841 0.615,-0.838 0.618,-0.835C0.62,-0.832 0.62,-0.828 0.619,-0.824C0.547,-0.628 0.494,-0.472 0.459,-0.359C0.425,-0.245 0.408,-0.173 0.408,-0.141C0.411,-0.113 0.419,-0.093 0.433,-0.082C0.447,-0.07 0.464,-0.065 0.484,-0.066C0.505,-0.067 0.526,-0.073 0.55,-0.084C0.573,-0.096 0.596,-0.111 0.618,-0.128C0.639,-0.146 0.659,-0.167 0.676,-0.189C0.693,-0.211 0.705,-0.234 0.713,-0.258C0.721,-0.258 0.73,-0.257 0.74,-0.256C0.749,-0.255 0.755,-0.249 0.756,-0.236C0.746,-0.203 0.731,-0.173 0.711,-0.145C0.691,-0.117 0.668,-0.092 0.642,-0.072C0.616,-0.052 0.588,-0.036 0.56,-0.025C0.531,-0.014 0.503,-0.008 0.477,-0.007C0.451,-0.007 0.427,-0.013 0.405,-0.024C0.384,-0.035 0.368,-0.054 0.356,-0.08ZM0.057,-0.165C0.057,-0.151 0.059,-0.138 0.063,-0.125C0.068,-0.113 0.075,-0.102 0.083,-0.092C0.091,-0.082 0.102,-0.074 0.113,-0.068C0.125,-0.063 0.138,-0.06 0.152,-0.06C0.176,-0.06 0.202,-0.066 0.228,-0.079C0.254,-0.092 0.278,-0.109 0.3,-0.129C0.321,-0.15 0.339,-0.173 0.353,-0.199C0.367,-0.225 0.374,-0.251 0.374,-0.276C0.374,-0.29 0.371,-0.301 0.366,-0.311C0.36,-0.32 0.353,-0.327 0.344,-0.333C0.335,-0.338 0.324,-0.342 0.311,-0.344C0.298,-0.347 0.285,-0.348 0.271,-0.348C0.245,-0.348 0.219,-0.343 0.193,-0.334C0.167,-0.326 0.144,-0.313 0.124,-0.297C0.104,-0.281 0.088,-0.261 0.075,-0.239C0.063,-0.217 0.057,-0.192 0.057,-0.165Z" style="fill-rule:nonzero;"/>
        </g>
        <g transform="matrix(16.9813,-56.8697,56.8697,16.9813,845.04,679.986)">
            <path d="M0.248,0.008C0.197,0.014 0.155,0.012 0.122,0.002C0.089,-0.008 0.063,-0.022 0.044,-0.042C0.025,-0.062 0.013,-0.085 0.007,-0.111C0.001,-0.138 0,-0.166 0.003,-0.194C0.006,-0.223 0.014,-0.251 0.025,-0.279C0.036,-0.306 0.05,-0.331 0.066,-0.353C0.083,-0.374 0.1,-0.391 0.12,-0.403C0.139,-0.415 0.158,-0.42 0.177,-0.418C0.216,-0.417 0.245,-0.408 0.263,-0.393C0.28,-0.378 0.29,-0.359 0.291,-0.336C0.292,-0.314 0.285,-0.29 0.272,-0.264C0.259,-0.238 0.243,-0.214 0.222,-0.192C0.202,-0.169 0.179,-0.15 0.154,-0.135C0.129,-0.119 0.104,-0.11 0.08,-0.108C0.099,-0.078 0.121,-0.057 0.146,-0.047C0.172,-0.036 0.198,-0.033 0.226,-0.036C0.254,-0.039 0.281,-0.047 0.309,-0.062C0.336,-0.076 0.361,-0.092 0.384,-0.111C0.407,-0.13 0.426,-0.15 0.441,-0.171C0.457,-0.192 0.467,-0.211 0.471,-0.229C0.476,-0.237 0.482,-0.242 0.489,-0.244C0.496,-0.246 0.502,-0.246 0.508,-0.243C0.514,-0.24 0.518,-0.235 0.521,-0.228C0.525,-0.22 0.525,-0.213 0.523,-0.204C0.511,-0.179 0.496,-0.153 0.478,-0.127C0.459,-0.102 0.439,-0.079 0.416,-0.059C0.392,-0.038 0.367,-0.022 0.338,-0.01C0.31,0.003 0.28,0.008 0.248,0.008ZM0.18,-0.364C0.159,-0.362 0.141,-0.353 0.126,-0.337C0.111,-0.321 0.099,-0.303 0.091,-0.282C0.083,-0.261 0.079,-0.239 0.078,-0.218C0.077,-0.196 0.079,-0.179 0.086,-0.166C0.098,-0.167 0.111,-0.173 0.127,-0.184C0.143,-0.194 0.159,-0.207 0.173,-0.221C0.188,-0.236 0.201,-0.252 0.212,-0.269C0.223,-0.285 0.23,-0.301 0.233,-0.315C0.236,-0.329 0.234,-0.341 0.226,-0.35C0.219,-0.36 0.203,-0.364 0.18,-0.364Z" style="fill-rule:nonzero;"/>
        </g>
    </g>
    <g transform="matrix(1,0,0,1,-394.375,-387.5)">
        <g transform="matrix(1,0,0,1,27.5096,97.6181)">
            <path d="M625.111,494.693C650.998,470.351 651.794,460.03 651.794,444.946C651.794,433.831 643.238,416.96 619.738,416.96L619.665,416.96C596.165,416.96 587.609,433.831 587.609,444.946C587.609,460.03 588.405,470.351 614.291,494.693" style="fill:none;stroke:black;stroke-width:14px;"/>
        </g>
        <g transform="matrix(1,0,0,1,28.2799,97.6181)">
            <path d="M618.586,493.908C618.586,493.908 526.615,402.216 461.454,397.09C396.293,391.964 408.305,442.072 418.282,455.895C428.259,469.717 457.562,502.264 509.051,502.334C560.54,502.403 568.547,503.297 566.521,495.147C563.747,483.988 510.33,495.217 494.71,516.568C479.091,537.919 480.763,560.528 502.537,566.727C524.312,572.926 553.541,560.838 615.432,496.992M615.432,496.992L621.057,491.492C621.057,491.492 710.575,402.216 775.736,397.09C840.897,391.964 828.885,442.072 818.907,455.895C808.93,469.717 779.627,502.264 728.138,502.334C676.65,502.403 668.642,503.297 670.668,495.147C673.442,483.988 726.86,495.217 742.479,516.568C758.098,537.919 756.426,560.528 734.652,566.727C712.878,572.926 680.477,557.754 618.586,493.908" style="fill:none;stroke:black;stroke-width:14px;"/>
        </g>
        <g transform="matrix(1.01723,0,0,1,17.829,97.6181)">
            <path d="M570.747,410.863C570.747,410.863 589.917,416.779 595.375,428.984C595.375,428.984 606.272,450.367 585.998,464.289" style="fill:none;stroke:black;stroke-width:13.88px;"/>
        </g>
        <g transform="matrix(-1.01723,0,0,1,1275.62,97.6181)">
            <path d="M570.747,410.863C570.747,410.863 589.917,416.779 595.375,428.984C595.375,428.984 606.272,450.367 585.998,464.289" style="fill:none;stroke:black;stroke-width:13.88px;"/>
        </g>
        <g transform="matrix(1,0,0,1,27.5096,97.6181)">
            <path d="M619.953,493.898C619.953,493.898 668.485,536.733 667.38,594.324C666.089,661.578 619.761,681.745 619.761,681.745L619.761,681.745C619.761,681.745 573.432,661.578 572.142,594.324C571.036,536.733 619.569,493.898 619.569,493.898" style="fill:none;stroke:black;stroke-width:14px;"/>
        </g>
        <g transform="matrix(1,0,0,1,27.5096,97.6181)">
            <path d="M582.971,544.81C582.971,544.81 617.009,541.898 656.545,544.779" style="fill:none;stroke:black;stroke-width:14px;"/>
        </g>
        <g transform="matrix(1,0,0,1,27.5096,97.6181)">
            <path d="M573.051,578.755C573.051,578.755 618.18,574.144 666.485,578.712" style="fill:none;stroke:black;stroke-width:14px;"/>
        </g>
        <g transform="matrix(1,0,0,1,27.5096,97.6181)">
            <path d="M573.714,612.648C573.714,612.648 620.588,608.144 665.807,612.648" style="fill:none;stroke:black;stroke-width:14px;"/>
        </g>
        <g transform="matrix(1,0,0,1,27.5096,97.6181)">
            <path d="M583.332,643.554C583.332,643.554 618.678,637.049 656.186,643.554" style="fill:none;stroke:black;stroke-width:14px;"/>
        </g>
    </g>
</svg>
