<?xml version="1.0" encoding="UTF-8" standalone="no"?>
<!DOCTYPE svg PUBLIC "-//W3C//DTD SVG 1.1//EN" "http://www.w3.org/Graphics/SVG/1.1/DTD/svg11.dtd">
<svg width="100%" height="100%" viewBox="0 0 505 505" version="1.1" xmlns="http://www.w3.org/2000/svg" xmlns:xlink="http://www.w3.org/1999/xlink" xml:space="preserve" xmlns:serif="http://www.serif.com/" style="fill-rule:evenodd;clip-rule:evenodd;stroke-linecap:round;stroke-linejoin:round;stroke-miterlimit:1.5;">
    <g transform="matrix(1.03902,0,0,1.03902,-475.949,-435.289)">
        <g transform="matrix(0.341176,0.939999,-0.939999,0.341176,968.202,28.4594)">
            <text x="463.798px" y="704.937px" style="font-family:'TheOnlyException', 'The Only Exception';font-size:72px;">w</text>
        </g>
        <g transform="matrix(0.488806,0.872393,-0.872393,0.488806,908.787,-35.1015)">
            <text x="484.345px" y="757.907px" style="font-family:'TheOnlyException', 'The Only Exception';font-size:72px;">i</text>
        </g>
        <g transform="matrix(0.574148,0.818751,-0.818751,0.574148,846.72,-74.1848)">
            <text x="494.675px" y="776.868px" style="font-family:'TheOnlyException', 'The Only Exception';font-size:72px;">l</text>
        </g>
        <g transform="matrix(0.701823,0.712351,-0.712351,0.701823,722.437,-124.55)">
            <text x="509.996px" y="800.685px" style="font-family:'TheOnlyException', 'The Only Exception';font-size:72px;">d</text>
        </g>
        <g transform="matrix(0.827269,0.561806,-0.561806,0.827269,564.487,-162.019)">
            <text x="545.726px" y="836.984px" style="font-family:'TheOnlyException', 'The Only Exception';font-size:72px;">b</text>
        </g>
        <g transform="matrix(0.89777,0.440464,-0.440464,0.89777,439.515,-169.169)">
            <text x="584.196px" y="862.257px" style="font-family:'TheOnlyException', 'The Only Exception';font-size:72px;">i</text>
        </g>
        <g transform="matrix(0.941567,0.336825,-0.336825,0.941567,328.771,-151.828)">
            <text x="601.977px" y="871.657px" style="font-family:'TheOnlyException', 'The Only Exception';font-size:72px;">e</text>
        </g>
        <g transform="matrix(0.990866,0.134852,-0.134852,0.990866,125.225,-77.7207)">
            <text x="636.32px" y="885.509px" style="font-family:'TheOnlyException', 'The Only Exception';font-size:72px;">n</text>
        </g>
        <g transform="matrix(0.997571,-0.0696584,0.0696584,0.997571,-60.4923,50.8775)">
            <text x="699.253px" y="892.798px" style="font-family:'TheOnlyException', 'The Only Exception';font-size:72px;">e</text>
        </g>
        <g transform="matrix(0.961888,-0.273443,0.273443,0.961888,-215.776,235.29)">
            <text x="736.187px" y="891.716px" style="font-family:'TheOnlyException', 'The Only Exception';font-size:72px;">n</text>
        </g>
        <g transform="matrix(0.895074,-0.445917,0.445917,0.895074,-305.64,446.786)">
            <text x="796.564px" y="872.852px" style="font-family:'TheOnlyException', 'The Only Exception';font-size:72px;">t</text>
        </g>
        <g transform="matrix(0.833126,-0.553083,0.553083,0.833126,-340.343,596.714)">
            <text x="818.696px" y="862.37px" style="font-family:'TheOnlyException', 'The Only Exception';font-size:72px;">e</text>
        </g>
        <g transform="matrix(0.739484,-0.673174,0.673174,0.739484,-347.561,790.2)">
            <text x="847.159px" y="844.15px" style="font-family:'TheOnlyException', 'The Only Exception';font-size:72px;">s</text>
        </g>
        <g transform="matrix(0.642595,-0.766206,0.766206,0.642595,-311.456,964.046)">
            <text x="877.635px" y="815.873px" style="font-family:'TheOnlyException', 'The Only Exception';font-size:72px;">t</text>
        </g>
        <g transform="matrix(0.574148,-0.818751,0.818751,0.574148,-271.585,1070.93)">
            <text x="893.708px" y="796.545px" style="font-family:'TheOnlyException', 'The Only Exception';font-size:72px;">.</text>
        </g>
        <g transform="matrix(0.451011,-0.892518,0.892518,0.451011,-202.565,1237.47)">
            <text x="904.629px" y="783.398px" style="font-family:'TheOnlyException', 'The Only Exception';font-size:72px;">d</text>
        </g>
        <g transform="matrix(0.286117,-0.958195,0.958195,0.286117,-45.0016,1415.12)">
            <text x="927.207px" y="737.761px" style="font-family:'TheOnlyException', 'The Only Exception';font-size:72px;">e</text>
        </g>
    </g>
    <g transform="matrix(1,0,0,1,-394.375,-387.5)">
        <g transform="matrix(1,0,0,1,27.5096,97.6181)">
            <path d="M625.111,494.693C650.998,470.351 651.794,460.03 651.794,444.946C651.794,433.831 643.238,416.96 619.738,416.96L619.665,416.96C596.165,416.96 587.609,433.831 587.609,444.946C587.609,460.03 588.405,470.351 614.291,494.693" style="fill:none;stroke:black;stroke-width:14px;"/>
        </g>
        <g transform="matrix(1,0,0,1,28.2799,97.6181)">
            <path d="M618.586,493.908C618.586,493.908 526.615,402.216 461.454,397.09C396.293,391.964 408.305,442.072 418.282,455.895C428.259,469.717 457.562,502.264 509.051,502.334C560.54,502.403 568.547,503.297 566.521,495.147C563.747,483.988 510.33,495.217 494.71,516.568C479.091,537.919 480.763,560.528 502.537,566.727C524.312,572.926 553.541,560.838 615.432,496.992M615.432,496.992L621.057,491.492C621.057,491.492 710.575,402.216 775.736,397.09C840.897,391.964 828.885,442.072 818.907,455.895C808.93,469.717 779.627,502.264 728.138,502.334C676.65,502.403 668.642,503.297 670.668,495.147C673.442,483.988 726.86,495.217 742.479,516.568C758.098,537.919 756.426,560.528 734.652,566.727C712.878,572.926 680.477,557.754 618.586,493.908" style="fill:none;stroke:black;stroke-width:14px;"/>
        </g>
        <g transform="matrix(1.01723,0,0,1,17.829,97.6181)">
            <path d="M570.747,410.863C570.747,410.863 589.917,416.779 595.375,428.984C595.375,428.984 606.272,450.367 585.998,464.289" style="fill:none;stroke:black;stroke-width:13.88px;"/>
        </g>
        <g transform="matrix(-1.01723,0,0,1,1275.62,97.6181)">
            <path d="M570.747,410.863C570.747,410.863 589.917,416.779 595.375,428.984C595.375,428.984 606.272,450.367 585.998,464.289" style="fill:none;stroke:black;stroke-width:13.88px;"/>
        </g>
        <g transform="matrix(1,0,0,1,27.5096,97.6181)">
            <path d="M619.953,493.898C619.953,493.898 668.485,536.733 667.38,594.324C666.089,661.578 619.761,681.745 619.761,681.745L619.761,681.745C619.761,681.745 573.432,661.578 572.142,594.324C571.036,536.733 619.569,493.898 619.569,493.898" style="fill:none;stroke:black;stroke-width:14px;"/>
        </g>
        <g transform="matrix(1,0,0,1,27.5096,97.6181)">
            <path d="M582.971,544.81C582.971,544.81 617.009,541.898 656.545,544.779" style="fill:none;stroke:black;stroke-width:14px;"/>
        </g>
        <g transform="matrix(1,0,0,1,27.5096,97.6181)">
            <path d="M573.051,578.755C573.051,578.755 618.18,574.144 666.485,578.712" style="fill:none;stroke:black;stroke-width:14px;"/>
        </g>
        <g transform="matrix(1,0,0,1,27.5096,97.6181)">
            <path d="M573.714,612.648C573.714,612.648 620.588,608.144 665.807,612.648" style="fill:none;stroke:black;stroke-width:14px;"/>
        </g>
        <g transform="matrix(1,0,0,1,27.5096,97.6181)">
            <path d="M583.332,643.554C583.332,643.554 618.678,637.049 656.186,643.554" style="fill:none;stroke:black;stroke-width:14px;"/>
        </g>
    </g>
</svg>
